<?xml version="1.0" standalone="no"?>
<!DOCTYPE svg PUBLIC "-//W3C//DTD SVG 20010904//EN"
 "http://www.w3.org/TR/2001/REC-SVG-20010904/DTD/svg10.dtd">
<svg version="1.0" xmlns="http://www.w3.org/2000/svg"
 width="853.000000pt" height="1280.000000pt" viewBox="0 0 853.000000 1280.000000"
 preserveAspectRatio="xMidYMid meet">
<metadata>
Created by potrace 1.15, written by Peter Selinger 2001-2017
</metadata>
<g transform="translate(0.000000,1280.000000) scale(0.100000,-0.100000)"
fill="#000000" stroke="none">
<path d="M4068 12303 c-83 -24 -141 -92 -188 -219 -17 -44 -37 -84 -45 -90 -8
-6 -42 -17 -75 -23 -86 -17 -126 -36 -179 -86 -66 -62 -93 -121 -105 -232 -16
-147 25 -345 89 -429 43 -56 121 -112 183 -130 31 -10 61 -21 66 -25 12 -11
27 -689 19 -887 -4 -106 -10 -168 -19 -180 -11 -16 -43 -17 -396 -18 -446 -1
-725 8 -756 25 -12 6 -22 21 -22 32 0 39 -61 138 -127 206 -57 60 -77 73 -128
89 -75 23 -182 23 -257 0 -41 -12 -74 -32 -113 -67 -64 -59 -88 -96 -115 -175
-22 -62 -54 -104 -79 -104 -9 0 -52 -12 -95 -26 -68 -23 -87 -35 -141 -89 -84
-83 -119 -156 -124 -257 -3 -82 15 -159 50 -210 11 -14 19 -30 19 -36 0 -14
90 -95 152 -136 30 -20 84 -47 119 -59 85 -30 84 -30 99 -82 7 -24 19 -50 26
-56 8 -6 14 -18 14 -26 0 -22 55 -97 92 -125 94 -72 217 -112 327 -106 168 9
293 120 334 296 8 35 18 66 22 70 3 4 212 8 463 9 346 1 480 -2 551 -13 52 -7
95 -15 97 -16 4 -4 3 -573 -1 -838 -5 -324 -9 -842 -6 -930 4 -163 4 -822 0
-890 -1 -8 0 -199 1 -425 3 -569 8 -507 -41 -539 -44 -29 -63 -64 -80 -148 -8
-36 -22 -64 -44 -88 -22 -24 -38 -56 -50 -100 -9 -36 -24 -92 -33 -125 -13
-51 -16 -146 -19 -605 l-3 -544 -75 -70 c-56 -51 -85 -86 -110 -137 -19 -37
-39 -70 -45 -74 -6 -4 -44 7 -84 24 -193 80 -380 82 -513 4 -65 -38 -173 -157
-173 -192 0 -15 -9 -40 -20 -54 -28 -35 -126 -272 -149 -359 -26 -97 -34 -189
-22 -235 5 -21 15 -72 22 -113 7 -41 20 -85 30 -98 17 -23 17 -25 -19 -81 -48
-75 -84 -154 -175 -386 -111 -281 -130 -353 -131 -505 -1 -98 3 -133 16 -160
9 -19 19 -57 23 -85 4 -27 15 -69 26 -92 23 -52 23 -62 4 -83 -9 -9 -37 -82
-64 -161 -27 -79 -77 -223 -110 -319 l-61 -175 0 -211 c0 -116 3 -239 6 -273
l7 -61 2247 0 2247 0 6 97 c4 54 7 173 7 266 l0 167 -64 223 c-35 122 -76 264
-90 316 -15 51 -33 102 -40 113 -13 17 -11 27 15 82 48 103 61 189 56 361 -4
138 -7 160 -41 270 -100 324 -186 539 -244 612 -30 38 -30 38 -11 62 12 15 17
31 13 47 -3 13 1 43 10 65 9 23 15 44 12 47 -3 2 3 17 14 32 17 24 19 39 14
116 -8 121 -23 177 -100 361 -90 217 -128 286 -185 337 -148 133 -405 155
-615 51 -40 -19 -76 -35 -80 -35 -5 0 -29 32 -54 71 -25 39 -81 105 -124 146
l-80 75 3 282 c2 154 5 313 7 351 13 283 1 448 -45 615 -12 41 -21 85 -21 97
0 13 -17 39 -39 60 -34 34 -39 46 -50 113 -11 73 -19 87 -65 115 -15 9 -16
100 -17 1065 -1 580 -1 1394 0 1807 2 711 3 753 20 763 38 20 1033 8 1067 -13
6 -3 16 -30 23 -60 7 -34 27 -74 51 -107 22 -29 42 -61 45 -71 7 -22 61 -63
133 -102 49 -26 66 -29 134 -29 83 2 164 17 188 37 8 7 26 16 39 20 37 11 180
154 207 207 13 26 24 60 24 75 0 38 9 48 55 63 86 27 173 87 263 180 66 68 84
106 76 160 -4 25 -2 45 5 54 32 39 -28 204 -103 284 -51 54 -139 106 -199 117
-55 11 -73 31 -106 118 -35 92 -77 151 -145 201 -62 46 -111 60 -211 60 -137
1 -217 -40 -299 -153 -18 -25 -37 -57 -41 -71 -4 -14 -16 -34 -26 -45 -10 -12
-25 -39 -32 -60 -12 -35 -19 -41 -53 -47 -58 -10 -473 -9 -684 2 -102 5 -231
12 -287 14 -127 7 -150 12 -157 39 -5 22 -8 402 -7 797 1 241 -1 233 74 245
93 16 212 95 261 174 28 45 52 244 42 343 -18 166 -142 296 -323 338 -63 14
-76 28 -98 105 -33 116 -97 211 -176 261 -32 20 -52 23 -154 26 -70 2 -134 -2
-157 -9z"/>
</g>
</svg>
